# xmcd
# Track frame offsets:
# 150
# 18688
# 38192
# 52560
# 81676
# 106212
# 124529
# 143095
# 163264
# 187217
# 234794
# 262496
#
# Disc length: 3786 seconds
# Revision: 0
# Processed by: cddbd v1.5.2PL0 Copyright (c) Steve Scherf et al.
# Submitted via: VisiTrax 2.10.2.252 - For more info visit www.synapsa.com
#
DISCID=a70ec80c
DTITLE=Voxhall Blues - Kom andget it
DYEAR=2006
DGENRE=Blues
TTITLE0=Linda Lu
TTITLE1=Walkin by myself
TTITLE2=Hey Little girl
TTITLE3=Down to my last cigarette
TTITLE4=Statesboro blues
TTITLE5=Ckicken Chack
TTITLE6=This time no lies
TTITLE7=Mean little mama
TTITLE8=Somewhere trouble don´t go
TTITLE9=Driftin Blues
TTITLE10=Grinnin´in your face
TTITLE11=Shim sham shimmy
EXTD=
EXTT0=
EXTT1=
EXTT2=
EXTT3=
EXTT4=
EXTT5=
EXTT6=
EXTT7=
EXTT8=
EXTT9=
EXTT10=
EXTT11=
PLAYORDER=
